<?xml version="1.0" encoding="utf-8"?>
<!-- Generator: Adobe Illustrator 16.0.3, SVG Export Plug-In . SVG Version: 6.00 Build 0)  -->
<!DOCTYPE svg PUBLIC "-//W3C//DTD SVG 1.1//EN" "http://www.w3.org/Graphics/SVG/1.1/DTD/svg11.dtd">
<svg version="1.1" id="Layer_1" xmlns="http://www.w3.org/2000/svg" xmlns:xlink="http://www.w3.org/1999/xlink" x="0px" y="0px"
	 width="436.333px" height="144.739px" viewBox="0 0 436.333 144.739" enable-background="new 0 0 436.333 144.739"
	 xml:space="preserve">
<g>
	<g>
		<path fill="#872B90" d="M86.988,88.979c-0.182,0.105-0.333,0.194-0.465,0.271c8.464,4.122,21.975,8.491,35.062,8.804
			c3.583-6.365,6.871-12.976,9.119-20.046c-12.09,5.227-25.102,7.381-38.947,8.039C90.193,87.063,88.604,88.041,86.988,88.979z"/>
		<path fill="#00AEEF" d="M99.426,80.569c12.343-1.992,26.034-6.914,33.731-11.856c1.947-8.285,2.99-16.92,2.99-25.799
			c0-3.732-0.187-7.42-0.541-11.058C128.194,51.251,115.556,68.05,99.426,80.569z"/>
		<path fill="#ED0973" d="M119.253,101.321c-14.492,0-28.342-2.743-41.063-7.739c-7.624-2.994-14.841-6.798-21.547-11.305
			c-0.058-0.039-0.117-0.076-0.175-0.115C29.425,63.912,10.755,34.203,7.415,0c-4.76,12.455-7.375,25.971-7.375,40.1
			c0,1.97,0.052,3.928,0.152,5.873c0.071,1.377,0.174,2.743,0.294,4.107c0.39,4.431,0.989,8.908,1.928,13.283
			c0.277,1.293,0.146,0.803,0.277,1.293c7.901,8.304,24.136,18.515,28.219,21.433c-4.166-0.833-19.607-8.29-25.736-12.343
			c3.521,11.237,8.796,22.364,15.895,31.805c5.092,2.159,14.967,7.017,18.467,8.204c-4.5-0.438-10.779-2.239-14.85-3.435
			c11.738,14.645,27.063,26.289,44.646,33.596c0.672,0.279,1.346,0.557,2.025,0.823c3.295-1.543,6.502-3.24,9.613-5.084
			c15.871-9.404,29.23-22.597,38.826-38.34C119.616,101.315,119.435,101.321,119.253,101.321z"/>
	</g>
	<g>
		<path fill="#FFFFFF" d="M171.801,101.015c-6.233-14.882-11.448-30.083-15.646-45.602h10.176
			c2.736,11.448,6.36,22.959,10.433,34.28c4.069-11.384,7.504-22.769,10.364-34.28h9.86c-4.261,15.519-9.604,30.72-15.774,45.602
			H171.801z"/>
		<path fill="#FFFFFF" d="M222.422,101.842c-8.65,0-17.109-3.37-17.109-17.618c0-12.085,6.106-17.616,17.173-17.616
			s17.234,5.531,17.234,17.616C239.72,96.498,233.361,101.842,222.422,101.842z M222.485,73.857c-5.915,0-8.079,2.671-8.079,10.366
			c0,7.761,2.164,10.368,8.141,10.368c5.854,0,8.079-2.545,8.079-10.432C230.626,76.656,228.59,73.857,222.485,73.857z"/>
		<path fill="#FFFFFF" d="M254.277,101.015V67.497h8.329v4.197c2.038-3.498,4.263-4.898,8.65-4.898c1.593,0,2.291,0.193,2.291,0.193
			v8.458c0,0-1.017-0.191-2.799-0.191c-6.996,0-7.632,5.724-7.632,13.356v12.402H254.277z"/>
		<path fill="#FFFFFF" d="M302.785,101.842c-8.65,0-17.11-3.37-17.11-17.618c0-12.085,6.107-17.616,17.175-17.616
			c11.066,0,17.233,5.531,17.233,17.616C320.083,96.498,313.725,101.842,302.785,101.842z M302.85,73.857
			c-5.916,0-8.078,2.671-8.078,10.366c0,7.761,2.162,10.368,8.141,10.368c5.853,0,8.079-2.545,8.079-10.432
			C310.991,76.656,308.955,73.857,302.85,73.857z"/>
		<path fill="#FFFFFF" d="M352.717,81.744c0-5.151-0.065-7.823-5.725-7.823c-6.296,0-6.996,3.307-6.996,11.193v15.9h-8.841V67.497
			h8.396v4.324c2.417-3.244,5.024-5.15,11.193-5.15c8.586,0,10.813,3.688,10.813,13.865v20.479h-8.841V81.744z"/>
		<path fill="#FFFFFF" d="M424.726,81.744c0-5.151-0.064-7.823-5.726-7.823c-6.296,0-6.996,3.307-6.996,11.193v15.9h-8.84V67.497
			h8.395v4.324c2.418-3.244,5.025-5.15,11.196-5.15c8.584,0,10.811,3.688,10.811,13.865v20.479h-8.84V81.744z"/>
		<path fill="#FFFFFF" d="M377.632,70.557v30.458h8.842V66.794C383.58,68.147,380.631,69.4,377.632,70.557z"/>
		<path fill="#00AEEF" d="M377.632,55.437c0,2.96,0,6.918,0,7.734c2.999-1.156,5.948-2.409,8.842-3.764c0-1.15,0-7.217,0-10.254
			C383.625,51.356,380.672,53.448,377.632,55.437z"/>
	</g>
	<g>
		<path fill="#FFFFFF" d="M169.235,135.354l3.555-1.935c0.263,0.935,0.75,1.646,1.461,2.132c0.71,0.486,1.625,0.73,2.744,0.73
			c0.96,0,1.714-0.22,2.262-0.661c0.544-0.441,0.818-1.044,0.818-1.808c0-1.014-0.975-1.881-2.922-2.606
			c-0.659-0.235-1.165-0.435-1.521-0.593c-2.003-0.828-3.399-1.671-4.195-2.527c-0.798-0.854-1.197-1.895-1.197-3.119
			c0-1.672,0.658-3.026,1.966-4.067c1.311-1.038,3.046-1.56,5.204-1.56c1.447,0,2.688,0.268,3.722,0.799
			c1.032,0.533,1.787,1.294,2.262,2.282l-3.042,2.093c-0.224-0.594-0.614-1.064-1.175-1.412c-0.56-0.349-1.205-0.523-1.945-0.523
			c-0.815,0-1.469,0.192-1.965,0.582c-0.491,0.389-0.741,0.905-0.741,1.551c0,0.975,1.107,1.863,3.318,2.666
			c0.698,0.249,1.24,0.454,1.62,0.611c1.724,0.685,2.958,1.457,3.701,2.32c0.744,0.863,1.117,1.938,1.117,3.228
			c0,1.87-0.68,3.334-2.035,4.394c-1.356,1.059-3.226,1.589-5.608,1.589c-1.829,0-3.348-0.342-4.559-1.026
			C170.867,137.81,169.919,136.763,169.235,135.354z"/>
		<path fill="#FFFFFF" d="M197.702,138.751v-14.967h-3.278v-3.752h3.278v-7.088h4.283v7.088h3.277v3.752h-3.277v14.967H197.702z"/>
		<path fill="#FFFFFF" d="M221.188,120.032v10.543c0,1.817,0.375,3.12,1.126,3.91c0.752,0.79,1.969,1.186,3.653,1.186
			c1.687,0,2.902-0.396,3.653-1.186c0.749-0.79,1.127-2.093,1.127-3.91v-10.543h4.282v9.261c0,3.579-0.719,6.179-2.15,7.799
			c-1.435,1.619-3.728,2.428-6.871,2.428c-3.198,0-5.518-0.802-6.953-2.407c-1.434-1.605-2.152-4.212-2.152-7.819v-9.261H221.188z"
			/>
		<path fill="#FFFFFF" d="M262.231,108.146h4.287v30.605h-4.287v-2.429c-0.765,1.078-1.654,1.882-2.676,2.408
			c-1.018,0.526-2.188,0.789-3.504,0.789c-2.647,0-4.73-0.903-6.25-2.713c-1.521-1.812-2.28-4.288-2.28-7.435
			c0-2.989,0.775-5.402,2.33-7.236c1.55-1.837,3.58-2.755,6.082-2.755c1.525,0,2.834,0.319,3.918,0.958
			c1.088,0.637,1.88,1.557,2.38,2.753V108.146z M262.351,129.332c0-1.935-0.453-3.441-1.354-4.521
			c-0.902-1.08-2.161-1.619-3.781-1.619c-1.619,0-2.891,0.556-3.821,1.668c-0.928,1.112-1.391,2.656-1.391,4.631
			c0,1.987,0.447,3.521,1.344,4.602c0.894,1.078,2.157,1.617,3.792,1.617c1.551,0,2.809-0.583,3.771-1.747
			C261.87,132.797,262.351,131.254,262.351,129.332z"/>
		<path fill="#FFFFFF" d="M280.152,111.936c0-0.724,0.267-1.349,0.801-1.874c0.531-0.527,1.167-0.79,1.904-0.79
			c0.763,0,1.399,0.253,1.905,0.759c0.506,0.507,0.761,1.143,0.761,1.905c0,0.765-0.257,1.405-0.77,1.926
			c-0.515,0.52-1.147,0.779-1.896,0.779c-0.737,0-1.373-0.266-1.904-0.8C280.419,113.31,280.152,112.673,280.152,111.936z
			 M280.725,138.751v-18.719h4.286v18.719H280.725z"/>
		<path fill="#FFFFFF" d="M297.836,129.411c0-1.369,0.26-2.662,0.78-3.88c0.52-1.218,1.266-2.3,2.24-3.248
			c0.963-0.935,2.066-1.652,3.316-2.153c1.252-0.499,2.561-0.749,3.931-0.749c1.407,0,2.736,0.25,3.978,0.749
			c1.244,0.501,2.36,1.237,3.346,2.213c0.989,0.96,1.74,2.047,2.253,3.257c0.512,1.212,0.771,2.481,0.771,3.812
			c0,1.382-0.255,2.68-0.762,3.89c-0.508,1.212-1.247,2.285-2.221,3.219c-1.026,0.987-2.165,1.734-3.415,2.241
			c-1.251,0.506-2.567,0.759-3.949,0.759c-1.355,0-2.66-0.253-3.91-0.759c-1.25-0.507-2.362-1.241-3.337-2.202
			c-0.988-0.973-1.737-2.066-2.25-3.276C298.091,132.07,297.836,130.78,297.836,129.411z M313.929,129.451
			c0-1.738-0.56-3.209-1.679-4.413c-1.119-1.205-2.488-1.807-4.107-1.807c-1.606,0-2.971,0.602-4.098,1.807
			c-1.125,1.204-1.687,2.675-1.687,4.413s0.562,3.208,1.687,4.412c1.127,1.204,2.491,1.808,4.098,1.808s2.973-0.604,4.098-1.808
			C313.366,132.659,313.929,131.189,313.929,129.451z"/>
	</g>
</g>
</svg>
