<?xml version="1.0" encoding="utf-8"?>
<!-- Generator: Adobe Illustrator 16.0.0, SVG Export Plug-In . SVG Version: 6.00 Build 0)  -->
<!DOCTYPE svg PUBLIC "-//W3C//DTD SVG 1.1//EN" "http://www.w3.org/Graphics/SVG/1.1/DTD/svg11.dtd">
<svg version="1.1" id="Layer_1" xmlns="http://www.w3.org/2000/svg" xmlns:xlink="http://www.w3.org/1999/xlink" x="0px" y="0px"
	 width="512px" height="512px" viewBox="0 0 512 512" enable-background="new 0 0 512 512" xml:space="preserve">
<g>
	<g>
		<path d="M492,20v472H20V20H492 M512,0H0v512h512V0L512,0z"/>
	</g>
	<g>
		<g>
			<g opacity="0.1">
				<g>
					<path d="M191.785,306.872l-18.662,61.453h-40.86l69.493-216.851h50.512l70.463,216.851h-42.467l-19.629-61.453H191.785z
						 M253.881,276.954l-17.057-53.409c-4.178-13.191-7.72-27.992-10.936-40.539h-0.642c-3.22,12.547-6.436,27.667-10.298,40.539
						l-16.729,53.409H253.881z"/>
				</g>
			</g>
			<g>
				<g>
					<path d="M191.785,305.547L173.123,367h-40.86l69.493-216.85h50.512L322.73,367h-42.467l-19.629-61.453H191.785z
						 M253.881,275.629l-17.057-53.409c-4.178-13.192-7.72-27.991-10.936-40.54h-0.642c-3.22,12.549-6.436,27.668-10.298,40.54
						l-16.729,53.409H253.881z"/>
				</g>
			</g>
		</g>
		<g>
			<g opacity="0.1">
				<g>
					<path d="M380.309,167.885c0,11.903-8.689,21.232-22.521,21.232c-13.191,0-21.877-9.329-21.877-21.232
						c0-12.227,9.006-21.56,22.197-21.56C371.619,146.325,379.985,155.658,380.309,167.885z M338.158,368.325V211.639h39.898
						v156.687H338.158z"/>
				</g>
			</g>
			<g>
				<g>
					<path d="M380.309,166.559c0,11.904-8.689,21.233-22.521,21.233c-13.191,0-21.877-9.329-21.877-21.233
						c0-12.227,9.006-21.559,22.197-21.559C371.619,145,379.985,154.332,380.309,166.559z M338.158,367V210.313h39.898V367H338.158z
						"/>
				</g>
			</g>
		</g>
	</g>
</g>
</svg>
