<?xml version="1.0" encoding="utf-8"?>
<!-- Generator: Adobe Illustrator 16.0.0, SVG Export Plug-In . SVG Version: 6.00 Build 0)  -->
<!DOCTYPE svg PUBLIC "-//W3C//DTD SVG 1.1//EN" "http://www.w3.org/Graphics/SVG/1.1/DTD/svg11.dtd">
<svg version="1.1" id="Layer_1" xmlns="http://www.w3.org/2000/svg" xmlns:xlink="http://www.w3.org/1999/xlink" x="0px" y="0px"
	 width="512px" height="512px" viewBox="0 0 512 512" enable-background="new 0 0 512 512" xml:space="preserve">
<g>
	<path d="M72.08,185.633c6.393,0,11.597,5.198,11.6,11.576l-0.005,132.363c0.007,6.393-5.204,11.6-11.574,11.607
		c-6.404-0.006-11.615-5.225-11.616-11.633l-0.023-132.314c0.001-6.396,5.197-11.6,11.598-11.599H72.08 M72.08,165.633
		c-0.008,0-0.014,0-0.021,0c-0.004,0-0.011,0-0.015,0c-17.447-0.001-31.579,14.166-31.583,31.595l0.023,132.323
		c0.003,17.496,14.172,31.612,31.597,31.629c17.468-0.021,31.612-14.144,31.593-31.629l0.005-132.34
		C103.671,179.791,89.519,165.633,72.08,165.633L72.08,165.633z"/>
</g>
<g>
	<path d="M378.414,191.552l0.033,185.065c0,7.572-6.144,13.733-13.725,13.733l-23.039,0.011l-19.996,0.009l0.005,19.996
		l0.017,69.985c0,6.405-5.202,11.616-11.596,11.616h-0.063c-6.368,0-11.554-5.206-11.559-11.59V410.37v-20.003l-20.003,0.003
		l-42.656,0.006l-19.996,0.003l-0.001,19.995l-0.005,70.021c0.003,3.096-1.203,6.009-3.396,8.204c-2.19,2.192-5.1,3.399-8.193,3.399
		c-3.08,0-5.982-1.208-8.174-3.401c-2.195-2.196-3.403-5.105-3.402-8.206l-0.027-70.016l-0.008-19.992h-19.992H149.67
		c-3.676,0-7.122-1.423-9.703-4.006c-2.581-2.583-4-6.033-3.997-9.737l-0.045-185.045L378.414,191.552 M398.41,171.549l-282.49,0.05
		l0.05,205.046c-0.019,18.665,15.049,33.738,33.7,33.738c0.005,0,0.007,0,0.011,0h22.957l0.027,70.016
		c-0.005,17.428,14.158,31.6,31.576,31.6c17.463,0,31.606-14.183,31.588-31.624l0.005-69.999l42.656-0.006v70.008
		c0.014,17.415,14.169,31.59,31.559,31.59c0.018,0,0.032,0,0.049,0c0.004,0,0.01,0,0.015,0c17.452,0,31.596-14.18,31.596-31.616
		l-0.017-69.99l23.039-0.011c0.006,0,0.014,0,0.02,0c18.586,0,33.696-15.106,33.696-33.733L398.41,171.549L398.41,171.549z"/>
</g>
<g>
	<path d="M257.237,50c18.772,0,36.81,3.806,53.609,11.277l7.156,3.191c18.415,9.602,33.838,23.376,44.615,39.896
		C369.82,115.404,374.794,128,377.362,140H136.781c2.568-12,7.549-24.604,14.764-35.651c10.861-16.633,26.421-30.474,44.997-40.054
		l0.054-0.021l6.813-3.041C220.164,53.788,238.173,50,256.979,50h0.11H257 M345.129,0c-1.573,0-3.088,0.839-3.878,2.305
		l-22.276,40.698C300.276,34.687,279.365,30,257.237,30c-0.06,0-0.117,0-0.177,0c-0.041,0-0.084,0-0.125,0
		c-22.096,0-43.016,4.68-61.648,12.958l-22.3-40.578c-0.796-1.469-2.297-2.289-3.84-2.289c-0.711,0-1.432,0.177-2.096,0.545
		c-2.146,1.156-2.931,3.839-1.741,5.939l22.063,39.929C144.022,68.863,114.733,111,114.755,160h284.637
		c0.005-49-29.23-91.067-72.519-113.479l22.054-40.115c1.177-2.104,0.404-4.707-1.728-5.896C346.538,0.159,345.827,0,345.129,0
		L345.129,0z"/>
</g>
<g>
	<path d="M192.343,85c-0.003,0-0.006,0-0.01,0c-0.002,0-0.003,0-0.005,0c-6.579,0-11.898,5.493-11.903,12.047
		c0,6.582,5.34,11.959,11.895,11.977c6.608-0.005,11.958-5.429,11.958-12.005C204.269,90.47,198.938,85,192.343,85L192.343,85z"/>
</g>
<g>
	<path d="M321.93,85.164c-6.592,0.021-11.919,5.393-11.941,11.931c0,6.598,5.353,11.906,11.925,11.906c0.004,0,0.008,0,0.012,0
		c0.002,0,0.003,0,0.005,0c6.578,0,11.921-5.309,11.908-11.899C333.843,90.551,328.474,85.183,321.93,85.164L321.93,85.164z"/>
</g>
<g>
	<path d="M442.21,185.59c6.391,0,11.59,5.2,11.59,11.595l0.024,132.321c0,6.401-5.201,11.609-11.582,11.61
		c-6.398-0.003-11.604-5.203-11.602-11.6l-0.022-132.322c-0.001-3.102,1.205-6.019,3.396-8.213c2.184-2.187,5.083-3.392,8.189-3.392
		H442.21 M442.18,165.59c-17.434,0-31.565,14.162-31.562,31.609l0.022,132.321c-0.004,17.472,14.136,31.59,31.594,31.597
		c17.45-0.003,31.59-14.125,31.59-31.61L473.8,197.181c0-17.448-14.14-31.591-31.59-31.591c-0.003,0-0.004,0-0.007,0
		C442.195,165.59,442.188,165.59,442.18,165.59L442.18,165.59z"/>
</g>
</svg>
