<?xml version="1.0" encoding="utf-8"?>
<!-- Generator: Adobe Illustrator 16.0.0, SVG Export Plug-In . SVG Version: 6.00 Build 0)  -->
<!DOCTYPE svg PUBLIC "-//W3C//DTD SVG 1.1//EN" "http://www.w3.org/Graphics/SVG/1.1/DTD/svg11.dtd">
<svg version="1.1" id="Layer_1" xmlns="http://www.w3.org/2000/svg" xmlns:xlink="http://www.w3.org/1999/xlink" x="0px" y="0px"
	 width="512px" height="512px" viewBox="0 0 512 512" enable-background="new 0 0 512 512" xml:space="preserve">
<g>
	<g>
		<path d="M342.476,20.212c0.397,4.119,0.344,10.651-1.534,19.375c-3.146,14.622-10.223,28.858-19.924,40.087
			c-18.433,21.334-43.668,29.966-56.824,30.79c-0.063-4.178,0.467-10.694,2.796-19.322c3.905-14.465,11.266-28.461,20.729-39.413
			C304.854,31.892,329.015,21.765,342.476,20.212 M345.871,0c-17.788,0.002-50.345,12.094-73.288,38.654
			c-29.729,34.406-33.622,81.805-23.091,89.048c2.691,1.85,7.113,2.828,12.69,2.828c18.889,0,51.02-11.218,73.969-37.78
			c29.728-34.409,30.766-79.868,20.987-89.645C355.09,1.055,351.127,0,345.871,0L345.871,0z"/>
	</g>
	<g>
		<path d="M177.858,114.478v20c9.63,0,19.664,1.406,29.823,4.179c3.79,1.034,8.638,3.05,13.77,5.184
			c13.313,5.535,29.88,12.423,50.093,12.423c14.578,0,29.072-3.717,43.08-11.048c11.129-5.825,24.153-8.903,37.665-8.903
			c28.241,0,58.919,13.216,88.798,38.24c-10.913,7.989-45.413,36.499-47.805,79.121l-0.128,2.24
			c-1.316,22.705-3.767,64.958,32.713,96.194c2.044,1.766,17.803,15.17,33.571,22.591c-0.155,0.293-0.345,0.628-0.577,1.003
			l-0.659,1.068l-0.517,1.126c-0.27,0.586-27.408,59.043-71.545,100.22c-5.696,5.317-15.96,11.654-32.506,11.654
			c-11.268,0-23.817-2.925-37.311-8.693c-5.038-2.668-22.901-11.084-47.685-11.084c-19.944-0.001-39.262,5.389-57.418,16.02
			l-0.815,0.477l-0.766,0.552c-0.069,0.05-7.871,4.96-20.067,4.96c-11.836,0-24.204-4.516-36.76-13.422l-1.279-1.194l-2.296-0.84
			c-1.611-0.856-11.781-6.674-25.381-23.47c-13.908-17.177-34.221-49.488-52.003-105.879c-9.338-29.619-13.378-59.538-11.683-86.523
			c1.85-29.44,10.283-54.269,25.066-73.795c7.535-9.953,20.012-24.114,36.661-35.057c17.504-11.506,36.333-17.341,55.961-17.341
			L177.858,114.478 M177.857,114.478c-53.021,0-89.317,34.9-108.567,60.326c-36.482,48.19-35.563,117.978-16.512,178.405
			c37.959,120.373,88.463,141.682,88.463,141.682C159.811,508.063,176.385,512,189.573,512c19.63,0,31.754-8.729,31.754-8.729
			c17.257-10.104,33.592-13.279,47.312-13.278c23.209,0.001,38.929,9.088,38.929,9.088c17.435,7.576,32.796,10.689,46.067,10.689
			c20.304,0,35.712-7.288,46.152-17.033c47.747-44.546,76.08-106.509,76.08-106.509c12.28-19.84-6.161-28.835-6.161-28.835
			c-14.288-6.158-30.797-20.447-30.797-20.447c-30.051-25.705-26.823-61.31-25.658-82.156c2.246-40.02,41.919-65.69,41.919-65.69
			c16.406-10.125,5.495-24.17,0-28.833c-38.014-32.241-73.375-43.954-102.882-43.954c-18.094,0-33.988,4.406-46.938,11.184
			c-12.249,6.41-23.478,8.768-33.806,8.768c-23.906,0-42.974-12.637-58.597-16.901C200.535,115.975,188.838,114.478,177.857,114.478
			L177.857,114.478z"/>
	</g>
</g>
</svg>
