<?xml version="1.0" encoding="utf-8"?>
<!-- Generator: Adobe Illustrator 16.0.0, SVG Export Plug-In . SVG Version: 6.00 Build 0)  -->
<!DOCTYPE svg PUBLIC "-//W3C//DTD SVG 1.1//EN" "http://www.w3.org/Graphics/SVG/1.1/DTD/svg11.dtd">
<svg version="1.1" id="Layer_1" xmlns="http://www.w3.org/2000/svg" xmlns:xlink="http://www.w3.org/1999/xlink" x="0px" y="0px"
	 width="512px" height="512px" viewBox="0 0 512 512" enable-background="new 0 0 512 512" xml:space="preserve">
<g>
	<g>
		<path d="M414.305,123c-5.351,0-20.572,231.489-29.705,332.001c-8.923,2.567-18.745,5.286-28.89,8.21
			c-36.271,10.456-84.398,24.273-98.931,28.228c-14.532-3.954-62.662-17.856-98.934-28.313c-10.143-2.924-19.965-5.544-28.887-8.111
			C119.826,354.503,104.604,183,99.253,123H414 M436.156,103H77.402c0,0,21.929,247.406,32.88,367.441
			c48.85,14.022,144.518,41.671,146.497,41.671c1.979,0,97.647-27.593,146.497-41.615C414.228,350.462,436.156,103,436.156,103
			L436.156,103z"/>
	</g>
	<polygon fill-rule="evenodd" clip-rule="evenodd" points="369.408,177.002 364.612,219.547 265.667,267.975 361.045,267.975 
		349.462,407.543 254.296,433.209 163.759,406.793 157.313,336.226 203.593,336.476 205.616,371.884 254.296,385.194 
		308.045,371.464 312.511,312.627 155.37,312.877 151.867,270.04 258.281,222.427 147.571,220.797 144.563,177.002 	"/>
	<path fill-rule="evenodd" clip-rule="evenodd" d="M364.027,0v23.787h-18.426l17.926,24.787v19.821h-53.753V46.593h17.423
		c0,0,0.504-0.502,0.504-1.003l-19.406-27.25V0H364.027z M285.404,0v23.787h-17.899l17.899,24.286v20.321h-53.727V46.09h17.905
		l-19.406-28.25V0H285.404z M206.306,0v22.806h-32.341v23.787h32.341v21.801h-55.731V0H206.306z"/>
</g>
</svg>
