<?xml version="1.0" encoding="utf-8"?>
<!-- Generator: Adobe Illustrator 16.0.0, SVG Export Plug-In . SVG Version: 6.00 Build 0)  -->
<!DOCTYPE svg PUBLIC "-//W3C//DTD SVG 1.1//EN" "http://www.w3.org/Graphics/SVG/1.1/DTD/svg11.dtd">
<svg version="1.1" id="Layer_1" xmlns="http://www.w3.org/2000/svg" xmlns:xlink="http://www.w3.org/1999/xlink" x="0px" y="0px"
	 width="512px" height="512px" viewBox="0 0 512 512" enable-background="new 0 0 512 512" xml:space="preserve">
<path d="M109.497,0h23.071v22.796h21.105V0h23.086v69.037h-23.086V45.917h-21.105v23.121h-23.071V0L109.497,0z M109.497,0"/>
<path d="M207.098,22.896h-20.325V0h63.715v22.896h-20.324v46.142h-23.066V22.896L207.098,22.896z M207.098,22.896"/>
<path d="M260.603,0h24.057l14.802,24.256L314.248,0h24.071v69.037h-22.981V34.826l-15.877,24.542h-0.4l-15.888-24.542v34.211h-22.57
	V0L260.603,0z M260.603,0"/>
<path d="M349.8,0h23.08v46.217h32.45v22.82H349.8V0L349.8,0z M349.8,0"/>
<polygon points="257.096,179 143.243,179 144.333,193.031 155.483,320 312.853,320 307.58,375.551 256.946,387.592 206.332,371.584 
	203.101,333 157.52,333 163.877,405.835 256.946,432.408 350.02,407.281 362.485,269 197.018,269 192.871,218 366.457,218 
	366.607,218 370.68,179 "/>
<g>
	<path d="M414.541,122c-5.351,0-20.579,232-29.716,332.55c-8.952,2.576-18.811,5.524-28.991,8.459
		c-36.248,10.449-84.346,24.367-98.873,28.32c-14.532-3.954-62.644-17.797-98.901-28.248c-10.171-2.933-20.019-5.97-28.963-8.544
		C119.96,353.987,104.732,183,99.381,122H415 M436.393,102H77.529c0,0,21.936,247.919,32.891,367.99
		c48.864,14.026,144.562,41.903,146.541,41.903s97.677-27.93,146.541-41.956C414.457,349.866,436.393,102,436.393,102L436.393,102z"
		/>
</g>
</svg>
