<?xml version="1.0" encoding="utf-8"?>
<!-- Generator: Adobe Illustrator 16.0.0, SVG Export Plug-In . SVG Version: 6.00 Build 0)  -->
<!DOCTYPE svg PUBLIC "-//W3C//DTD SVG 1.1//EN" "http://www.w3.org/Graphics/SVG/1.1/DTD/svg11.dtd">
<svg version="1.1" id="Layer_1" xmlns="http://www.w3.org/2000/svg" xmlns:xlink="http://www.w3.org/1999/xlink" x="0px" y="0px"
	 width="512px" height="512px" viewBox="0 0 512 512" enable-background="new 0 0 512 512" xml:space="preserve">
<g>
	<g>
		<path d="M492,20v472H20V20H492 M512,0H0v512h512V0L512,0z"/>
	</g>
	<g>
		<g>
			<g opacity="0.1">
				<g>
					<path d="M191.476,160.412v207.522h-37.871V160.412H191.476z"/>
				</g>
			</g>
			<g>
				<g>
					<path d="M191.476,159.086v207.523h-37.871V159.086H191.476z"/>
				</g>
			</g>
		</g>
		<g>
			<g opacity="0.1">
				<g>
					<path d="M356.41,149.325v176.43c0,15.395,0.561,32.019,1.127,42.18h-31.008l-1.402-23.709h-0.569
						c-8.179,16.628-24.8,27.1-44.817,27.1c-32.688,0-58.619-30.486-58.619-76.671c-0.288-50.188,28.46-80.053,61.442-80.053
						c18.888,0,32.413,8.621,38.613,19.705h0.558v-84.981H356.41z M321.734,280.492c0-3.08-0.279-6.771-0.836-9.854
						c-3.108-14.778-14.096-26.787-29.881-26.787c-22.268,0-34.672,21.552-34.672,49.574c0,27.401,12.404,47.413,34.394,47.413
						c14.093,0,26.487-10.468,29.871-26.785c0.845-3.389,1.124-7.082,1.124-11.087V280.492z"/>
				</g>
			</g>
			<g>
				<g>
					<path d="M356.41,148v176.43c0,15.395,0.561,32.019,1.127,42.18h-31.008l-1.402-23.709h-0.569
						c-8.179,16.628-24.8,27.1-44.817,27.1c-32.688,0-58.619-30.486-58.619-76.67c-0.288-50.189,28.46-80.055,61.442-80.055
						c18.888,0,32.413,8.623,38.613,19.705h0.558V148H356.41z M321.734,279.167c0-3.081-0.279-6.772-0.836-9.853
						c-3.108-14.779-14.096-26.787-29.881-26.787c-22.268,0-34.672,21.551-34.672,49.573c0,27.401,12.404,47.413,34.394,47.413
						c14.093,0,26.487-10.468,29.871-26.785c0.845-3.389,1.124-7.082,1.124-11.086V279.167z"/>
				</g>
			</g>
		</g>
	</g>
</g>
</svg>
