<?xml version="1.0" encoding="utf-8"?>
<!-- Generator: Adobe Illustrator 16.0.0, SVG Export Plug-In . SVG Version: 6.00 Build 0)  -->
<!DOCTYPE svg PUBLIC "-//W3C//DTD SVG 1.1//EN" "http://www.w3.org/Graphics/SVG/1.1/DTD/svg11.dtd">
<svg version="1.1" id="Layer_1" xmlns="http://www.w3.org/2000/svg" xmlns:xlink="http://www.w3.org/1999/xlink" x="0px" y="0px"
	 width="512px" height="512px" viewBox="0 0 512 512" enable-background="new 0 0 512 512" xml:space="preserve">
<g>
	<g>
		<g>
			<g opacity="0.1">
				<path d="M125.221,150.83c14.157-2.575,33.783-4.505,60.485-4.505c28.957,0,50.19,6.112,64.025,17.694
					c12.869,10.617,21.237,27.67,21.237,47.938c0,20.59-6.431,37.644-18.659,49.227c-15.763,15.766-40.539,23.164-68.531,23.164
					c-7.399,0-14.155-0.322-19.305-1.287v81.723h-39.252V150.83z M164.473,251.855c4.829,1.287,11.264,1.607,19.305,1.607
					c29.599,0,47.618-14.478,47.618-39.896c0-24.131-16.733-36.999-44.082-36.999c-10.936,0-18.657,0.964-22.841,1.932V251.855z"/>
			</g>
			<g>
				<path d="M125.221,149.505c14.157-2.575,33.783-4.505,60.485-4.505c28.957,0,50.19,6.112,64.025,17.695
					c12.869,10.616,21.237,27.669,21.237,47.938c0,20.59-6.431,37.643-18.659,49.227c-15.763,15.766-40.539,23.164-68.531,23.164
					c-7.399,0-14.155-0.322-19.305-1.288v81.723h-39.252V149.505z M164.473,250.529c4.829,1.288,11.264,1.608,19.305,1.608
					c29.599,0,47.618-14.478,47.618-39.896c0-24.131-16.733-36.999-44.082-36.999c-10.936,0-18.657,0.964-22.841,1.931V250.529z"/>
			</g>
		</g>
		<g>
			<g opacity="0.1">
				<path d="M283.178,328.428c9.011,5.472,26.064,11.257,40.221,11.257c17.373,0,25.09-7.076,25.09-17.369
					c0-10.62-6.431-16.091-25.731-22.848c-30.568-10.616-43.438-27.348-43.119-45.684c0-27.667,22.848-49.227,59.204-49.227
					c17.371,0,32.496,4.505,41.499,9.331l-7.717,27.99c-6.758-3.863-19.31-9.008-33.14-9.008c-14.154,0-21.881,6.758-21.881,16.407
					c0,9.977,7.4,14.8,27.353,21.879c28.311,10.295,41.499,24.774,41.823,47.937c0,28.313-22.197,49.231-63.706,49.231
					c-18.983,0-36.036-4.83-47.614-11.264L283.178,328.428z"/>
			</g>
			<g>
				<path d="M283.178,327.103c9.011,5.472,26.064,11.257,40.221,11.257c17.373,0,25.09-7.076,25.09-17.369
					c0-10.62-6.431-16.09-25.731-22.848c-30.568-10.615-43.438-27.348-43.119-45.684c0-27.668,22.848-49.227,59.204-49.227
					c17.371,0,32.496,4.505,41.499,9.331l-7.717,27.989c-6.758-3.861-19.31-9.007-33.14-9.007c-14.154,0-21.881,6.758-21.881,16.407
					c0,9.977,7.4,14.799,27.353,21.879c28.311,10.295,41.499,24.774,41.823,47.937c0,28.313-22.197,49.231-63.706,49.231
					c-18.983,0-36.036-4.83-47.614-11.264L283.178,327.103z"/>
			</g>
		</g>
	</g>
	<path d="M492,20v472H20V20H492 M512,0H0v512h512V0L512,0z"/>
</g>
</svg>
