<?xml version="1.0" encoding="utf-8"?>
<!-- Generator: Adobe Illustrator 16.0.0, SVG Export Plug-In . SVG Version: 6.00 Build 0)  -->
<!DOCTYPE svg PUBLIC "-//W3C//DTD SVG 1.1//EN" "http://www.w3.org/Graphics/SVG/1.1/DTD/svg11.dtd">
<svg version="1.1" id="Layer_1" xmlns="http://www.w3.org/2000/svg" xmlns:xlink="http://www.w3.org/1999/xlink" x="0px" y="0px"
	 width="512px" height="512px" viewBox="0 0 512 512" enable-background="new 0 0 512 512" xml:space="preserve">
<g>
	<path fill="none" stroke="#000000" stroke-width="20" stroke-miterlimit="10" d="M118.586,10C87.935,10,63,34.342,63,65.013V502
		h331.827C425.477,502,450,477.476,450,446.804V10H118.586z"/>
	<path d="M270.945,266.523l24.038,11.017l-2.444-17.136l-21.929-11.786L270.945,266.523z M88.596,323.909l31.31,3.565l6.826-29.098
		l-29.974-5.322L88.596,323.909z M199.953,122.413l-20.474-15.143l-14.245,19.365l22.477,14.028L199.953,122.413z M262.713,71.438
		l-13.129-17.132l-18.468,10.9L246.47,81.91L262.713,71.438z M330.366,59.417l-4.223-14.007l-22.255-1.785l6.451,15.353
		L330.366,59.417z M405.604,77.009l-18.691-13.359v8.678l18.021,11.14L405.604,77.009z M152.988,201.424l-25.591-11.132
		l-8.683,25.367l26.268,9.795L152.988,201.424z M280.414,189.948l-4.566,15.7l16.472,15.144l4.117-14.59L280.414,189.948z
		 M385.575,119.748l13.683,0.669l0.115-6.355l-14.248-2.894L385.575,119.748z M328.665,66.776
		c-65.836-3.203-183.683,59.192-200.605,309.504h161.429c-36.198-93.773-31.999-164.527-7.107-212.476
		c36.193-69.732,90.066-74.344,140.363-44.956c1.777-4.223,4.225-9.572,4.225-9.572C398.264,81.682,371.396,68.851,328.665,66.776z
		 M333.501,118.735l6.001,14.352l11.131-6.001l-4.118-13.243L333.501,118.735z M296.992,151.337l12.242,16.816l7.564-11.017
		l-10.68-16.587L296.992,151.337z M315.69,346.985l-7.569-18.366l-27.934-5.225l7.354,21.133L315.69,346.985z"/>
	<path d="M155.659,432.672v-11.903c0-6.354-6.334-17.762-17.917-17.762c-11.569,0-37.721,0-37.721,0v71.365h19.289v-20.784
		l15.582,20.784h23.144l-18.104-24.051C139.932,450.321,155.659,447.217,155.659,432.672z M136.673,436.228H119.16v-14.401h17.514
		V436.228z M211.602,402.692h-17.512c-8.754,0-17.949,8.022-17.949,18.556c0,10.529,0,52.808,0,52.808h18.986v-13.931h17.064v13.931
		h19.297c0,0,0-42.577,0-52.952C231.488,410.715,222.138,402.692,211.602,402.692z M212.191,440.978h-17.064V421.84h17.064V440.978z
		 M388.804,428.442c-8.464,0-18.584,0-18.584,0v-7.789h32.602v-17.695c0,0-21.257,0-32.718,0c-11.465,0-19.366,9.114-19.366,18.249
		v7.567c0,11.02,9.911,18.7,19.148,18.7c9.229,0,17.247,0,17.247,0v8.675h-35.161v18.022c0,0,24.363,0,34.711,0
		c10.35,0,19.705-7.786,19.705-17.237v-9.46C406.388,436,397.264,428.442,388.804,428.442z M311.008,402.844h-19.131v71.442h47.739
		v-19.148h-28.608V402.844z M252.035,474.286h19.14v-71.442h-19.14V474.286z"/>
</g>
</svg>
